<mxfile host="app.diagrams.net" agent="Mozilla/5.0 (X11; Linux x86_64; rv:133.0) Gecko/20100101 Firefox/133.0" version="25.0.3">
  <diagram name="Page-1" id="GtbCkJiXbDzxENf4vOfY">
    <mxGraphModel dx="3354" dy="1870" grid="1" gridSize="10" guides="1" tooltips="1" connect="1" arrows="1" fold="1" page="1" pageScale="1" pageWidth="850" pageHeight="1100" math="0" shadow="0">
      <root>
        <mxCell id="0" />
        <mxCell id="1" parent="0" />
        <mxCell id="4s9riecWB08T9JkeakZJ-9" value="" style="shape=flexArrow;endArrow=classic;html=1;rounded=0;exitX=0.172;exitY=1.01;exitDx=0;exitDy=0;exitPerimeter=0;" parent="1" source="4s9riecWB08T9JkeakZJ-2" edge="1">
          <mxGeometry width="50" height="50" relative="1" as="geometry">
            <mxPoint x="400" y="620" as="sourcePoint" />
            <mxPoint x="287" y="520" as="targetPoint" />
          </mxGeometry>
        </mxCell>
        <mxCell id="4s9riecWB08T9JkeakZJ-10" value="&lt;div&gt;Source Data Stream&lt;/div&gt;&lt;div&gt;(pizza-orders.json)&lt;br&gt;&lt;/div&gt;" style="edgeLabel;html=1;align=center;verticalAlign=middle;resizable=0;points=[];" parent="4s9riecWB08T9JkeakZJ-9" vertex="1" connectable="0">
          <mxGeometry x="0.0828" y="2" relative="1" as="geometry">
            <mxPoint as="offset" />
          </mxGeometry>
        </mxCell>
        <mxCell id="4s9riecWB08T9JkeakZJ-11" value="" style="shape=flexArrow;endArrow=classic;html=1;rounded=0;exitX=0.789;exitY=0;exitDx=0;exitDy=0;exitPerimeter=0;" parent="1" source="4s9riecWB08T9JkeakZJ-5" edge="1">
          <mxGeometry width="50" height="50" relative="1" as="geometry">
            <mxPoint x="400" y="620" as="sourcePoint" />
            <mxPoint x="520" y="350" as="targetPoint" />
          </mxGeometry>
        </mxCell>
        <mxCell id="4s9riecWB08T9JkeakZJ-12" value="&lt;div&gt;Processed Data Acks&lt;/div&gt;&lt;div&gt;(pizza-orders.ack.json)&lt;br&gt;&lt;/div&gt;" style="edgeLabel;html=1;align=center;verticalAlign=middle;resizable=0;points=[];" parent="4s9riecWB08T9JkeakZJ-11" vertex="1" connectable="0">
          <mxGeometry x="0.0223" y="-4" relative="1" as="geometry">
            <mxPoint as="offset" />
          </mxGeometry>
        </mxCell>
        <mxCell id="4s9riecWB08T9JkeakZJ-17" value="" style="group" parent="1" vertex="1" connectable="0">
          <mxGeometry x="220" y="140" width="390" height="210" as="geometry" />
        </mxCell>
        <mxCell id="4s9riecWB08T9JkeakZJ-2" value="&lt;div&gt;Aiven Cloud&lt;/div&gt;" style="whiteSpace=wrap;html=1;shape=mxgraph.basic.cloud_rect;container=0;labelPosition=center;verticalLabelPosition=bottom;align=center;verticalAlign=top;" parent="4s9riecWB08T9JkeakZJ-17" vertex="1">
          <mxGeometry width="390.00000000000006" height="210" as="geometry" />
        </mxCell>
        <mxCell id="4s9riecWB08T9JkeakZJ-1" value="Apache Kafka Service" style="points=[];aspect=fixed;html=1;align=center;shadow=0;dashed=0;fillColor=#FF6A00;strokeColor=none;shape=mxgraph.alibaba_cloud.kafka;container=0;labelPosition=center;verticalLabelPosition=bottom;verticalAlign=top;" parent="4s9riecWB08T9JkeakZJ-17" vertex="1">
          <mxGeometry x="156.25" y="120" width="67.5" height="50" as="geometry" />
        </mxCell>
        <mxCell id="4s9riecWB08T9JkeakZJ-14" value="" style="shape=image;imageAspect=0;aspect=fixed;verticalLabelPosition=bottom;verticalAlign=top;image=data:image/webp,UklGRo5fAABXRUJQVlA4WAoAAAA4AAAAiwQAUgQASUNDUKgBAAAAAAGobGNtcwIQAABtbnRyUkdCIFhZWiAH3AABABkAAwApADlhY3NwQVBQTAAAAAAAAAAAAAAAAAAAAAAAAAAAAAAAAAAA9tYAAQAAAADTLWxjbXMAAAAAAAAAAAAAAAAAAAAAAAAAAAAAAAAAAAAAAAAAAAAAAAAAAAAAAAAAAAAAAAlkZXNjAAAA8AAAAF9jcHJ0AAABTAAAAAx3dHB0AAABWAAAABRyWFlaAAABbAAAABRnWFlaAAABgAAAABRiWFlaAAABlAAAABRyVFJDAAABDAAAAEBnVFJDAAABDAAAAEBiVFJDAAABDAAAAEBkZXNjAAAAAAAAAAVjMmNpAAAAAAAAAAAAAAAAY3VydgAAAAAAAAAaAAAAywHJA2MFkghrC/YQPxVRGzQh8SmQMhg7kkYFUXdd7WtwegWJsZp8rGm/fdPD6TD//3RleHQAAAAAQ0MwAFhZWiAAAAAAAAD21gABAAAAANMtWFlaIAAAAAAAAG+iAAA49QAAA5BYWVogAAAAAAAAYpkAALeFAAAY2lhZWiAAAAAAAAAkoAAAD4QAALbPQUxQSAUTAAABHLVtGzn0/mPffahSFxETIGdrcaTO7JbXanKXh51vCPbw/1+dtvqeEydYizXUWypQd3cL9fla2o1utbm7jzrMfYNbg7m71AuZG+y2UHfDaYgn3z8ig5zfSc7O+d67iJgAoED8/UcRkfCv//3333///ffff//9999///3333///ffff//9999///3333///ffff//9999///3333///ff/f25zZIhKo+KABOV1cXoeSFBen6DngAbVpSergQZVJZl0QISqEvQ80KCc0aACKlTFARXKcfCv//3333///ffff//9999///3333///ffff//9999///3333///ffff//9999///3333///ffff//9999///3333///ffff//9999///3333///ffff//9999///3333///ffff//9999///33n5y+6rXCEAuyXync2JEhOa8VXeqX8UxhYZGZNtD6D9tXg6F6ziHiofL/LtVoNTwnFE7rn/r07+V/1iFWl5eXlx/xIOK5ivLyP19Xa7VaNTWgz8jIOGm1Wq12bFmn1frnPaMy2gsgNiNjnM1qtVqb3diyHqvVav2ic3eeEEgY+CiGZ+VlV2nCSj3zyucxXK+/ujcREPfiexUYvhsfTw+foZutGM4/Pz9a8cdx9/9ajuHt2v9rR1UYcGqj5RiG+4myBbySr22nsVYnCvDiD+3bcq3DdVx6tgmF6Kgc2E6x13U7Cve7BZNaZY4PhXtgTqoyb4MFBV1fMKjFRhdYUdCfxSrwHvsBBX+0G98SXPyeoyj0XzYq7LjOqz3IwIbf4v6e9sVqZKD3pSSVgk5j9iAjd04z/o24Zx3IxtqFElTbKWazeYoMadgLNmTna1xI921BZvrWzpWGLlmVF/TJt72I6Fmdl/eIrChmyyFk6p4nQsh3I0urp0s/6dd/cg5b0rdrx44dn86QB8VVeJCx7jvbcACQNLfOiWxtHsFJOfqU9idqmr3Y8r6m2tEpRrkP39mCDD45c+LESQ3IXuc46WbExPUYjq63JhjlPZ1+xki64XKVNDPwoUYM25cXyHnyf8DIuvb5ZCmmWxWGc903l8h2ep3HSNtlMUgtqri15zHMrYuSdLKctB8x8naPkViMCyt9GPa+5mfayXBMOzASb5wpqVzxAgr0uzTZTXwZRuYXsiWUh+tQsKWbZDbGCozUm0Zz0gg3+ZQNBex9VyWnMZZh5O7sLI2Md6PAXzfKaJZfjOB8bxgkkD4rbCj4l7WymX4HMJJ3PiZ9xBUiC4vlMmlnMbK338RJHGlHm5ngfY+Tx0zEiH+MtKHNQVYWxshh5jkjv7VqSWOJkxn4kk4G8xNGga9KGZfWIkO38LKXB+3RwDlOsuCmNyBLm2J4mctcjArrhksW7V3IVN/hyfIW47PRAe7LlCi4lcjabR1kLR0xWnxKJU2k2JiDl8tZ1D9HDQ3jpIkPvOw50UHG0tkaNaAtVYrY4EMGj+fkK39gFLlIgjB9hSy2JchWLrsQTTRIEJchk93rZCuvYTTZfI3k0P4wm7BCrnK5N6rA7VIDNwoZ7X1enmLMx+jyrwyJQdPMKrRkyFJ6YLS5QWLoZ2MWXitH4ZdGHeskhs+97FosR9HVRB3uadLCH8juLYkylPGOqAPv0koJnQ4yDHvLUCox+rSmSwnPeFnWS36SdTwKwQ5SwuvI8smc7OQlXzTSSSo7q5edFGE0eiMnIRQxzTlabtLnt6jkIi8dDP4v0/Cg3OR6jEob06WDxcj2/XKTJdGJ417JQPeoAgi/lwx6IeOPdVZE/CAZZLCu6UZKQfsZ63CrvET3+D9bejvzdneUlWThP1s6G/O2gqy0zz9cOS7mbVFEfC8VHEBFkOMBaeCyGmUQPiMNbERCpJuFEFHdg4RI3xpCpHcjiqDnRSJheDWK4fGeNMLoYyiK+4FCUM84jWRI8otWVBR91imKS5jzE4ql5xWFBO5+umBVjxAufagg/8nugdrdX5C/blKQBQX5+QU5gUYW5OffFCT56rvuXNU3yJUFT00Llrpw2dg5vQMl312Qn1+wIND8B5/ODqHXE2NDSBCb9DdRPG1qpQQi+vaVBbWcdyF695UF/NOJiCdKy/wtNYiItaVl/kcR8WJZ4D9q7HZfVVlASzXiKUtZ4D9qG4+drSwL+LsdEbGmtMz/vAtPf18W2LLfe8xSFvS3stA//64s+Me3fFvWopa09kWWsoDfTeCHfWLZO4vj/QGA5/nW4HgelnxfjiJq10ddXFhwPM/zHBeI40Pm+HBU9+vH8UG7PvH96+34luV4f+4flQjV68PgXrsPW7a+wY2BfRfrmryI1lr/pjmmGUfrjrQ3mUymdD3o000mU3pMIG1cmiltbUNtrQ1FNVLSJKWb0lSBYkz+KbEavzbppsBpOjCaArczxKenmlq8yy3T2plavd1zpyrrzt6e09NkMpk6vrGvrjb4Dx/X14Z4dn9dbcvWNTbWBm9woru+tkXP3re9vra28SaTf2xamka2wcxV2Xno/8wMs9lsnnV3SQOKsWNkqxjSE4TVzRx0CAf8ULPZbM5ODNB1kjn49BRz4AnQxzzO3OK3/4HYsHiG2Ww2z3gO/U8U3mQ2m2ftwqDVD8x4GQM71ryPZzCi9m2qbrrBbDb3kPNEiL4DE02DLr8hMYRZeaG+8sWWJ/P+/hM335+tnrQ6L8TcgQ/lhbrqzifyAq/Zi0GP5+cVnED/4ry8vLy1e5wY4ocY2LauApswyv9x7eqJ0EvOh77jv1ZdaP5xR/Az2Po2z+m9xzHUhkofhuxESff49r927NiVGrlxY2Ue/0zW/DE5OTkS0w0xOxVo/rZpPSOupOfPoXL9twceGB8hTf/oK/8yVLgf+cYc4XBxD589fbrehwr5+mPtjRFL4phR2adRYe/9bkRMRDLzjo2ozH8mKfIY+ckZVOzveiCy0A+ovIBKftup8bERg27gex5U+nvODmkXGQx7AmnAr0ZEApdXIBV4oEj0DDlNPjIAvduG8GLWcdhFN1KCPt8KtXhl/Ib04M1ipSn8CQlCz8PipNqJNKHjfg0nPnFf+ogCdDsGiU7iO0gY7p0pMus+RtKw/nJRedmNxGHDTPHQrvUheegax4mE+jGkEF3ZIvEU0og100XhZQ+RgK+JgGa9F6lE701q1ukeQ0pxBeuykFa8j22qUmLhzACmfeUjFnwlGoYNPozk4nJ29fwJ6cUvkpg1HynGUgOj2jeSDK4ObOLmI814uheT+GaiAT9k0gI71XB+Dove8lANeD/PoJ+RbhzLnnEnCYdNWua8jJTjMua8QDpUsibubdLhtJExVyPp2HwXY66iHXC7jincYuLBsYIp3bzEAz6tZ0l3JB/HkSJzeYb0oh9OJLJD/Tb94Etih6aZgMhhx2Ab/YA17PjWR0CcY8bkM0hAXkhlxWYkIbcxYvhhGuJbNnQ5gjTkoVEs0LyJVOSjLJjiIiO+SBee/iiSkd6JwnvcTke8ESu469xIR25QCS1tG1KSUwXGPYeEyBakJacIy3CMmKhJEVLydqQm0wSU9jkSIkORnkwVTtwpgmKFcEZ5CIrznFCym5CgrBHMF0iI9PqdpuCFoc5DkrJpnDD6n6QpsFQYo5Co3COIxCOUyGAfJXIBqcrdQkg8T1b8YBBAkZusqOoffrF7ka7MC7/HkLBcG36PUCJJb1MiWX9RIlOQEplAibQpp0TSkBKZRolwh0iR6v9XpH8DJVKKlMhuUuQBOyUytYkSKUVKZNe//vvfLttIkalNlAhUUyJcHSUCC0iRdqRIwk5KBCaQIpNJEe4xHyECgyopEdhGimRV0xWv6cMPuvrIiuoxAoj7nqxwTBEAjCIr3ksSQvzrVMUrWiGA9l0vTeGZLgiAUzQFzhLIIzSFZ7pA9KUkRXGCQLjxLopiPQj2Norio1TB3E5RuKYJprOFoMBZgoF3SJHH7JRI99OUCBwmRb7yUSKJLkok1vmv//5/tGZKhBtFicAAUmQgKZJYRInASlJkOSmykhRJ+ZYSgdd9lEjfk5QI7CdFKkmR97yUSIyTEtG8QolA1wZSYqbQVLeQEj8kCQyy6ymJOSD4y2sIiVnCg79Ika42SkTzKyUCXUiR2BcpEZjeQERcnMgEeNRBQ+AsNsBGDyXSxU6JwBQPCZHNCu4qCuIpYOaQgwTEOnbAevrB8xAl8ktbhqjKyIc9wNI7HMSD932mQBPx0DiMLTOJh2pga1od7XCAYwvMoB0GAWNH11AOm2JYo3+FcPihGzD3fg/ZsCuGZw/sIBu2AYv3UA3WJUwa3kA0nAM2XyAZHLW9GVUtZhUWi8Xym8VicYfLuUM+919ldgVQ020GYPQGMRsBAJAIAI8UbPijtSz5BQVPzR+06tGOcK/yx54LzG4rZmP9gvadOz/0xxznX5gf6tweEOpyxc+lwO7kZvFaqwnpb+s7tjdCi6tvVvS4j03hGQZTRatpMQj2aiWPKx84YHnWPrH6HIQ7aJ9y590ngPHcKpGqHysgeEmh43z9qjhgftweUfL0AyH3OqissTU3NzcXd83oFg9iWOwRo6pYQcFvipe6yooQf+qp1el0ahDLzHoxGgzCftwnIztSEXa20OrfK3xn4ydBdhcW/af8gyOI6MID7xYWufDPw1j+wY7S9wuLioqKCj+ov3Dwx41FgXe987Hlo6KWLsxJBPFe4hOfL00Cg1vlOB88HEpdKxQufsUW7Pg91+bm3vOX550li3/Cz6/JDbjyg8KHHrg2N8QxA5fkhvml1+aGOjsG9JBwXa7/NZ0BYKBxTG5u7pU5I/QAVy7qPzpnYGyHbjEQMHb2jJE9IWgnfXz3eIhEE+3icysIvaPnHyK3wxuKy263O7x+bofd3+Vx2O0Opz1khz0cbZsnZ/b5xWEPWH9jxlcOe2Db7gmZ/evsdrvdceaZe6dmZmVlZU4+bbfbG2/NzMoa+HiNw253VN2TmRU4c/nJ36ZnZgVP0vXJCp6R1fIJEN8rK2hXDQBoOvVuC9A+KwUCc0kJWi1ImdwksXG9CILn5jmlqfONLWY7Xuk8UFV1+mhV1ZFzJ6uqDrsdiL7mhvojVf6Vbl/TufrayqqAh53OmgNVYVm+MvntquA/X6EzGDLeqqqqOnhPvMFgMOiz16cYDN37xBhCjOllCEsNB6AzBFWB1hBcxwEYAmtUHPhzBn8VAIDa4K9XQXCVXseBBN/jT5E5Bgxs874YVWwtCbH46wue0veLSwJuPXii3lJcEvDT/Ye/KC4JXPwL4u7iktYv/v7AN8UlJcUfvVUSshfR/k1JyJ8WlwTeegBrPy4uaeX3Kt4vCbF4e+3Rz4pLwnDz5OvfKmnZrQ92gzUcwOBUgJRxmQAJz60qKSm657rFSRDwmU03jFt8KQSOW79+LgcyzrvExbOEBTDshOg8smwQhNxmVm5nNQQdNWl+VwgcM3RsPATvvfT6DhCO3UYmAQDoIPTclSsXtoWQYyD4qJVz9dDa/EAVhJo2d7wR5NNtt4lKcwwToFejyNytAeWsrlJE6gdzbOArRMW1igMl7VLxODUJWJl0WETc60FZqy4QjWJgpnqFiBwDpa2+QCSOdGEHpH0sGnf14ZQ2cK3NJwbHU4ChnKZUHFxP8qDAXfKLj33l7YGtaz2iYAFlbn8RWASsfUAMXIsVOvzVtYw7NCaNOck+EZgNSl1+WbWDZa5HgL38TAfrHHN5xQ4ArPYxbLuaQQALG9jWeA0oerln2PVhHLA55xTLHItB4duDVedvTQZWT/IxbA4ofVVL3Uw60U4DzObNTla5ZvOKH4C77ew5vbcdMH1BI5uaFoEi+A7mnJ8GrF9kY5H9WlAIm9ex5ZrRwP7ZZ9hz91RQDGtf8jLDbb1aBSLIpd3r9LHEZ39IA0rizV5GeF4BDkTy0t0s2T4CFMbrPmPCh6tARPmndrDCtVkFiuO0Ky8vElrVkrYgrh1K2WDJjgFFcnyOV0i2IyYexDb5pgaX4OqzUkGxfNM5wTRWDNGACPNtn6wXlOP3it6gZJ786ilhbFwJor2wUEDvPAaK5/EPnAm/LQs4EPOrXhTIzoUxoIDWdrnU6gwjV+PA3okg8nEZv9h94eVz2mr6pIFCmtdd9mtl89H/usLAWXW1DiJBbYed+2zhU1dZNkerB0W16u6usP4jV+sc2rh5DUSQD23+pCkcPJu35qhAmR2zcOnSpUuv+6wlPrxu6dLREGnGXrLU1krekusWgeI7tW+/wBOcTqfT9d6wfn2TIULN7Je50+nv/hsep9Ppfn1In7agJOeM/jqIbPVGo9EYN//ooUOHjjvQe/7goUNHHmpjNBq1QHum5L2zcQL863////W///7777///vvvv//++++///7777///vvvv//++++///7777///vvvv//++++///7777///vvvv//++++///7777///vvvv//++++///7777///vvvv//++++///7777///vvvv//++++///7777//NC8AVlA4IPBJAACwSgKdASqMBFMEPkkkkUYioj+jIVe4y/AJCWlu41Qcv/FebXzV/QD+AdNvKNQBqsFUAvGAH8A6Qw7u00Nn45FyrpC9Hy/85+WX+A/cL6HL4/W/v//cv2L+6bMv6C/rf7r7bvhT8j/Tv85/cv3m/y3/////2q/bv29fp7/ke4F/Ef5P/n/7R/jv/H/n//////En+VXsD/qX+S/7v+c/f/5hv+L+03vI/v3qEf0j/Kf/rsVfQd83P/sft5/2vln/br9pfge/mv9p/9PZ6dF/4b9F/6AfSn43/V/9D6bvM77mf7/nNfzL9HR18BT8l/p3CbgKmGPtMgn5cGoAg9YD/WZitgP9ZmK2A/1mYrYD/WZitgP9ZmK2A/1mYrYD/WZitgP9ZmK2A/1mYrYD/WZitgP9ZmK2A/1mYrYD/WZitgP9ZmK2A/1mYrYD/WZitgP9ZmK2A/1mYrYD/WZitgP9ZmK2A/1mYrYD/WZitgP9ZmK2A/1mYrYD/WZitgP9ZmK2A/1mYrYD/WZitgP9ZmK2A/1mYrYD/WZitgP9ZmK2A/1mYrYD/WZitgP9ZmK2A/1mYrYD/WZitgP9ZmK2A/1mYrYD/WZitgP9ZmK2A/1mYrYD/WZitgP9ZmK2A/1mYrYD/WZitgP9ZmK2A/1mYrYD/WZitgP9ZmK2A/1mYrYD/WZitgP9ZmK2A/1mYrYD/WZitgP9ZmK2A/1mYrYD/WZitgP9ZmK2A/1mYrYD/WZitgP9ZmK2A/1mYrYD/WZitgP614ckaWouhgP9ZmK2A/1mYrYD/WZitgP9ZmK2A/1mYrYD/WZitgKPIYiDljGaJ+P9ZmK2A/1mYrYD/WZitgP9ZmK2A/1mYrYD/WZitgP9ZmK2A/1mYrYD/WZitgP9ZmK2A/1mYrYD/WZitgP9ZmK2A/1mYrYD/WZitgP9ZmK2A/1mYrYD/WZitgP9ZmK2A/1mYrYD/WZitgP9ZmK2A/1mYrYD/WZitgP9ZmK2A/1mYrYD/WZitgP9ZmK2A/1mYrYD/WZitgP9ZmK2A/1mYrYD/WZitgP9ZmK2A/1mYrYD/WZitgP9ZmK2A/1mYrYD/WZitgP9ZmK2A/1mYrYD/WZitgP9ZmK2A/1mYrYD/WZitgP9ZmK2A/1mYrYD/WZitgP9ZmK2A/1mYrYD/WZitgP9ZmK2A/1mYrYD/WZitgP9ZmK2A/1mYrYD/WZitgP9ZmK2A/1mYrYD/WZitgP9ZmK2A/1mYrYD/WZitgP9ZmK2A/1mYrYD/WZitgP9ZmK2A/1mYrYD/WZitgP9ZmK2A/1mYrYD/WZitgP9ZmK2A/1mYrYD/WZitgP9ZmK2A/1mYrYD/WZitgP9ZmK2A/1mYrYD/WZitgP9ZmK2A/1mYrYD/WZitgP9ZmK2A/1mYrYD/WZitgP9ZmK2A/1mYrYD/WZitgP9ZmK2A/1mYrYD/WZitgP9ZmK2A/1mYrYD/WZitgP9ZmK2A/1mYrYD/WZitgP9ZmK2A/1mYrYD/WZitgP9ZmK2A/1mYrYD/WZitgP9ZmK2A/1mYrYD/WZitgP9ZmK2A/1mYrYD/WZitgP9ZmK2A/1mYrYD/WZitgP9ZmK2A/1mYrYD/WZitgP9ZmK2A/1mYrYD/WZitgP9ZhATbbWmPVUk+geS9HZFPQfKX2FCslSSvj1mYrYD/WZitgP9ZmK2A/1mYrYD/WZitgP697t7jDNqoTMSIf0hAKhpjp5la7eGrKUZKKAIPWA/00v9F1MmfTcPwVpn4v9D1mYrYD/WZitgP9ZmK2A/02/GuR/H4APY/lMcjFabMT80esaHyIwIAsFnKIXQn5IrNKi6r3/bcQNSvKpM1OG7YVv1gP7hAEHrAf6zCeUxeZtJxI64N+x4OyUZT6LbD/ETH/PWA/1mYrYD/WZitgP9ZhATbc2hIDd8uZYyG9a3XZ9Zn/FteAwJ2zHbW9/ryW4PSoxG2XEfvtj0wTGIDYOzw8ODHvVrv4dGGoAg9YD39Oj9hHSt/WRAG9Vfs3WmjZGZBVu0OYR6zMVsB/rMxWwH+szFbAUXyJJ+cjRWk66jTZDRR8xtwTRGAkdvH1n+7lekZMX00+KS6SZv/fZc7QxOFZLmKfcU80UNBtwwt+oOKX735czPvM9UOYriINRwhiSjaN+jkrKEVNdMjPT4GypwTLO0PcrTOFbNebrdhOIwC4RKcGQaGzU8TmZL0TWjGeShUfyWC2GJPSH7V8R9blq8HMOdWXQEOo2IJtScRBv30mcW1iL1uOl1CPBFudm/QthfSgpsyGSigB9HaSadz7rt1O+At2+FlJ0qpXY0wDYSOwa8og0Hwf+1W/leZXJj0Kyc/ElcCL/h3nAZbOgypmYnMh2VozQenz60o8YNgCrX4x4Me3vEnvbZWp13QCOF4dvrFvkf81dNoWcjoEu4ZdtISw5QVz77S4txnwd8pDMco+jfV8bXZwphLBpbttYmFgV7/qS1mcrlltLE2p3lDMhaQvcJAe0KjH4lR3kQhpSewdPM/7wzT4a4uxKfnx9omxt/q8CJAwsknsbD/eO8/oYDeV2ILREDoePoOogCwkm217z2qgGNLRZ3Ig6yO2ik7KKfoDycjYlV4RaosVS+6V/kfL2SvzCDTcD9C6NsSRR7n8Ye7UTqTwRG9Qm3xZljdbst+LpfTuiqkfqiQNRob6pa7D59HraAWavNBcajzIEUAHCJB8RWL6+ctLFO6E7WPQQr8F/u9iTJsp0/YQhoJUOXotta+ic1CZn55i53yUY4pOBzZ+L6Oitnz5fkFRdWzomVEg1/PMRZpvtSI5d0sTDNIY9m7KnMHjpHFInp/WKedIPM2o1u3pNIo9D6YEF1uGFom9gvI7MomYNKi9d8rF9+tOgI4PmhRMoS3G9Tv6ngEd9z8jnDzXCKyafxHTlMN8IE+9ojeFayDid5/HF8bXZpN5cWEUQDFwHA2YaP1miayoL9/7Y9W9H6qvUGZ5GlWp5pGwVA5fnoweEWKR75GsEUbYv9ij5I9gy3RFUhHFV+hCf6/Rhsr8T/xqBWCUAywmPorLpnWKAyXN0fxvWzvlTB09i/I2JfzfAq974K/f31YbtN8JiznnIkbkqGGLGXU2DcuEIYWOV2W5THwKVvfyKk0ENvexpex4goF50NsAyizlk7Q8ZiFUOiWJNV0C14N3PjFcDAFqaf+wHwxZRTFcwrnzk+h4w5T+de/mFj16O0vgWbRbZ1biTFdXGOMvOhKQ/n89ONj2W2w4xEWYDW3vd9xxIW/QpukcuZPJZ/keFLJMLxMUk0TaQA9PlkF5alXpBbXPKpeyQC2BS850+rGA23EcMhLr9XsXVvMw7W8uCiLKJl31U2wJQJESrbiqrQ6VBYysB1RqXXiB8NNDlWX1AG8EWkdyut85a+0j8O4jwECgD9Cpi1aTFSfQEiJSpABbLFIdvHwtB93peWG9ggi/nFmB+uDHqQufSwY+sTGsUaPYZuOipPBIxEL1093EC+jSkZG9nKmcttZ5lI2tFdnzQK/HsTMCA6M0ym+79oGzOQFwxkT/iyB8rUFmAUSfz8UhKU3rYur24WGF8rp0+hWWDOBRRTazFR9V9c/EjLApMgtj6eGUniRbC2eMjhe0NGfdZ43P5rhs/msoNEhv6S7rdAUpBauuGlYJ5sEgNgTe14U6vj9NYaXTmTjiKGF+0SR85bMOooId+0LJqCn18hx9C5yEv+AoE2gCUMdr9Wk4sMiDh5lKji1uckF+RpqgwAJAulSeas2R0js6Lb9JJ73rW8q6kaKY5MnJOgL5OMDd+zNdTR2WNebmqY7AUpKzvIlSBNI8Ack4+Ure9cRrO/egNAaIabVRvyfA0mcOhHIx/MV2xU0Ko51idZs94noVoRft46KDTj/TUuyRqfi/oi6PIhQn+iewG+1uKFnbaa4NaoBp3Mh+UW9iX5Sh8wo6HmdAnMRFjEdvmVeTd68u8owMr9wpkl5QOWv8J8SzKF68TlLwRNLlLTtO895g7pZOcPzQayDdNpjZBeS9lKOTAIP/Po0dOkPBHsjL1H4g0fLfFvz/Y6mFfbuQrq9TuASwCjdz2aZMBZP7797FfGhjPQbicRPOpm+xMDe7kzWIVjgFo6jDAH860CFpG55nk1ZfFQDzxg/pYsCWJiRbFC6Yk/8O2zzlT3iHaE2TjQfRNIjY1lY+ny28uG9xJ00uy3nKkwPLUb0KHzf22pPuFsBBekr6Xp8nPsO0aR9bEYMjSvdBZ4Kg31anssRQl1BDT/kBgqt3DDdp9qhDsvIiRtIIExhIWb0dmUACLkEB+tqK6V1qmtbnrwZXeBkswoA5CIB0WYSaK0Oibgzl6yrFLvqWYufoghUVJmKPlAQ/x+S4yrQwzwkJ/qUKmrC/AeqCbraC/TA4sku4guxV5vv8TOszVLH/5EEPO2drS5o0eYEaOontqlnSyc8qJWqBCtPEGxI/V/e4mzDa/JlFrsVY1tO1Rh++vNGvkWqEb7/FyIeg2OM0S8Wh5u5RCGo5hi9d/XRCW29nxhSo0ZTeMfzRZKSpAkxo5As8BOOW/CsMzfE605PpzYs1Cvghyn3GTrhZQ9Mhv29qN+RRc3beYJkx6QoZ4u6nHXL7wUAcW8O1nv6VDeJscH55hxwHhjM5mS7+i30eu5lVpHERVOd67r8rvD0vWO6fHAKa2ThO4kkvv6z/SwgKuPntGYhYZPndET8wFApSXDBgI0KODmIoiYinKOlbu2Q0iRpYONlAyP8rcRkG5mcCCK5R/eq58asX5Xw+pTIDHpirXDanagCYrGwLxI5pZWl123yJ8SxU2oSGjqgV9DrFAijWilI1kSaueDgdSGdJ1z4DFULU2eQgLRRnOI6h7CuxuK773F1kzkklAR1vRyScYK6IC8jc/5Nbmvq3vPR46CSokvK6qvYTqKccWE42+CPvukrxMWkTK9T5oJ/9xaOdNa9dp8tEkGeTwBarITmOoQScDzTq66sE8WnlhhQN4tOv9cBCei7n9h+Y4A/509aq2vAC//nKBG645nQHDAJhCuNJILM/Ntz81S4WAoNx50n5peon59Jm1WC4jsTdCkK7vDmxE3IL8GoZI/ugjR+qpfaSj8GREWaUczx+8jbJEK0ZjRH8s+6ZroU33Dp429Jl9NJFAGpPXG6pAZ4ZqQYgTpBFoyNtaJKtzTrk3tVez0Xk5jqKnHBxtFfbcONor7l8WQHaqNLj2ZQ1qPbcONor7bhxtVFM1HtuHG0WQHaK+25MkCjhNpizMR1FXGo6oM+4V+FWX/8Q5/UXDS0KmcxHUHewi+OhjGAVCw8BFYiqklO0KKInzbAc/1mYrYD/WZitgP9ZmK2A/1mYrYD/WZitfOOHG0xZmKsNosgQSLj/WZitgP9ZmK2A/1mYrYD/WZitgP9ZmK2A/1mYrYD/WZitgP9ZmK2A/1mYrYD/WZitgP9ZmK2A/1mYrYD/WZitgP9ZmK2A/1mYrYD/WZitgP9ZmK2A/1mYrYD/WZitgP9ZmK2A/1mYrYD/WZitgP9ZmK2A/1mYrYD/WZitgP9ZmK2A/1mYrYD/WZitgP9ZmK2A/1mYrYD/WZitgP9ZmK2A/1mYrYD/WZitgP9ZmK2A/1mYrYD/WZitgP9ZmK2A/1mYrYD/WZitgP9ZmK2A/1mYrYD/WZitgP9ZmK2A/1mYrYD/WZitgP9ZmK2A/1mYrYD/WZitgP9ZmK2A/1mYrYD/WZitgP9ZmK2A/1mYrYD/WZitgP9ZmK2A/1mYrYD/WZitgP9ZmK2A/1mYrYD/WZitgP9ZmK2A/1mYrYD/WZitgP9ZmK2A/1mYrYD/WZitgP9ZmK2A/1mYrYD/WZitgP9ZmK2A/1mYrYD/WZitgP9ZmK2A/1mYrYD/WZitgP9ZmK2A/1mYrYD/WZitgP9ZmK2A/1mYrYD/WZitgP9ZmK2A/1mYrYD/WZitgP9ZmK2A/1mYrYD/WZitgP9ZmK2A/1mYrYD/WZitgP9ZmK2A/1mYrYD/WZitgP9ZmK2A/1mYrYD/WZitgP9ZmK2A/1mYrYD/WZitgP9ZmK2A/1mYrYD/WZitgP9ZmK2A/1mYrYD/WZitgP9ZmK2A/1mYrYD/WZitgP9ZmK2A/1mYrYD/WZitgP9ZmK2A/1mYrYD/WZitgP9ZmK2A/1mYrYD/WZitgP9ZmK2A/1mYrYD/WZitgP9ZmK2A/1mYrYD/WZitgP9ZmK2A/1mYrYD/WZitgP9ZmK2A/1mYrYD/WZitgP9ZmK2A/1mYrYD/WZitgP9ZmK2A/1mYrYD/WZitgP9ZmK2A9wAP7/eUwAAAAAAAAAAAAAAAAAAAAAAAAAAAAAAAAAAAAAAAAAAAAAABFc2KfgF/6qJS2cLNbH/NreoAz7GQXS3//Q/iaIofgv/U9tJ1i7154sP1kl64SghIDrvLDIkpSFyS8stgw1J9NXK9T7PntoAAANvmcXXoOhw0GTX06P9+DivwPpLfI9hyX7e5/nbJraGJxjd8dYX6fWqQ2FMfn866KL3A8BAAAAAAAAAAAAAAAAAAAAAAAAAAAAAAAAAAAAAAAAAAAAAAAAAAAAAAAAAAAAAAAAAAAAAAAAAAAAAAAAAAAAAAAAJn/o2pT/pQuEgL6N1ZmOhXTQJxi2jmL/qGJTmagRLH+I2RuoV6UspnC7s0xzPxmfyi9rz6BI1RYsRPiDqXwf/EkTcc9R7eN8vc/XGBxEqKDOrGRp73zEmhVfvz5cOw22IIe33bu5BADs7OSsguy/f//9ZWcbbNgL4xeQAAAY//Q4fjIh61v9UVe8KtiU5CKwKnIYqmTi5b1/+Ca674lwLol9sdb0uDngLrY3LD/NxGzDMxexZizNcVdDS+z0JI7qhidcwtA/KoEsN6G1YXNsKboijXVx/eZmrgWF71ClS8wuLlg4595zwW3Dd8nb4Lf/ocW+H//7U5FGL0K2PU4t5hfeQNnu7MGGberlhsFTNTJtlzbN6QoZ5Tg9Czray14cxM6B0AACQ/6HLGV3QK8r33G9+VknV22pNid0ThDH7BcB+N3LMhvjbeXV7aiqyPiAm+SkC8gBJVxof58077U9ua0A1UeZfkfdHoJzSW6a7PGicQtH+5WW9j6zUmK5qqG9QYiXuyJgQwtVuVmU5Hollk80OL2q1xC6Jn1Pvm1hed93ocy8CPGpv0ez91vJy5sygPNRub4TYvar5whUqyoxnPPP4LcniWPzHis2QNrShpwpaKb8Zo6skDtVAxMbAU/o8k38ywaX0BeM0chfev16fn2jMd2qjTRr8GmwRBhMnLyITMLQbsVobYnnzqnQDJqyJxfqFzlSeMV9Xgvi+a54EeXnq4AAE6kkaRkowYolPuy10vySfk508wbDo4PC9/R2fja4Hyk/iq6++TSZrQbBhoplAzNrEnWiKMpNXvNWVnTn8Xh2upPz91uhiX27s62Jibkg9x2J2tOmOnHiA/9DnMK12f7S4mdu15xOh2Nd0GC6k4zCcvsqLd13sf2k55W9MswxIy43oFy7BZq+9LkYjJhreQIWPLIY0JsIEwqtQKDDtGGV4HklaHatbaxdTwACQ/6UJ29piJBwpLr9RY5VwPTAmW4yC7lJpwXx0ZIiZil/PVC/m1BqKlvRgeHOkOjOCrYebC3lGYtDlRhcxaSZDDvfJa5lhyZTEoussqbtDviPJOTznzYEHl6pVT21qdb3jZqgsThHcti2voYtPJ5FYZotV/d/l2+XrROl7ow995xMhSbXTLdnSJf3yOJeRDmdjJI/hOmqwZPjbljWhhdnYKXDUye7xaJmfbt+8sWwVvvu0xcq2Qgct9Np0FUIJPPmAHwRG7ZyVbRENsijp7bzYk+G9bSgXoG8o3FxvzHTK2USWy+ydWvDpBqnfmYf20Yc1CgPYW5V5dDLR0ydLWizTrsx8z7r9rsSeKKJqOzw0rLZkP0O0gWcVNiZCAVKSpYRo9zs0NwBkEkWSWEtTCZjZEKmq8jjTlcft1neN4pt/r2DSXFKS19iO3eEE+FHuau25i8BT3/A5ZPS2LGwoccPE5Y0i3uw5uJDfqn1Rwz/+hwpULYmyL+YB94TFC3DH4OD89vKKLDtMXMO0dPwyLsPvu2dIH/srYplmlEtZJ38nLBjHrBtMZPwxc7/m4AMAd21w+c58iOTlXXCnWPuvdH2Gj/n1Ngh+n8XarYTwkziB81cAAWO9C3kYzKc2qF2Gf8417g2S4Dc0sOZCHr95plt8IO7PfCO60bwI9XCo+pEgkGeYPp55fraoN7iCzoJpmKje6yx942Xpk347zHWxSG5meRrejtmuwLZQcwgpjg00d1EKsrLwAeKvIzWHrlgyPXDMAQnUr2DWCiAXk/uB6nPWjRztZFwxMQS/ybuWp97nzYhQAoEASm/TvM7LqKhk9JH44rIRgr733rmomZoTPXDY2QQx+jt1Fyly25F8njbue/Bnq6XtMyUvqQxlqkatwpJm9K3c4ve1jGGF8RwK7EqpcdTfMDQdNp7dqwsE09P/xMeV+eNfRWlpxLbJ4ujbt3l/iOcnmxW0tWZWEgSXgQQAH2oVE4YiJt/b+Vbhu0n5Ckv+lurSMci8rrgqkvQRH1Hhpwi2K9/vY/TEShZZ6oK3ZktH0o1RIJ8TDRJMROXEDfGBpZXZOuTFbJlI1znOrAyhmJK5Nkv4wqxXCExsPVNQQOjlx/VNpsVWVjvNTBne0xLClW8XcFEPgBiLifl42ud47J0a+FhhmxawAB4cQ1sc9qy17QCbi2MCJEt0eYxvW3ekiFQf4ElJXGUIKdUTpU+3WsTLmBl04HV7Adw1fitMerSRqPGfnMVOcTaqhXR4Xrp8SokpjfPHIAZxL4C9vQt3BpbcJ2w4Jgz7at4f5AgR//DuBl4q2bzr9fqKYkAL725Qm55GscybL118oMhFoKDY5qvLzTRF/6WMB8QD1+4NGj//t0YDKmnrdDMM1/nkn69E83whb/mY3GjHVu71WQonEZRGUOi5OkPoUDzMb5E+zfiWgzXumpsCVXact4LyMDNRwb1F776qinrKhnpVCMByv0aBxCqhP2VnhMHOvAHECo69DsYVZHDVExVPhy4+mIYHCJgWPBfEfB+BifFn/hu6PzLkcV7H7BmfGpri5OjH3lMHq7SfZiZjF1jAdf1nBzBwMEwZySOWXggpnYDJ1IFuiGlT267soCV/6HCU/6HD94RCt1zGAkiTh6iNM8gUGF2BM8yKBytv/xmote/XfMiSSnZos2o6TQSwGDJzSDEf/f2l1xcgSq9aDYtS3x7KsBo0tVJ1O8J8NbC6PxFOyMiDmswrYJSr9B3pIiUtegMTrl8kCXZHw3cPTPNaCV59IqNcOx+1kCt6Oe7tYDohcxIVTvl4pV1duOPM7ZRdWi8Pr8ACVKcPcLAHxjG+NiclYqo77HBiof0d37CElnXyvZ5cAIrY5j1DZLYJfLD5eS5tF1JHtYg2kNvDxDflymMHBWzSlxaEmUGptfymlwshNWHZ7Vcf0yXlz5J9fW/ScuvHxOxpmBZvO7hpykguhbfD+xpV41yc+cJVZyNawItz88tTjIwWnoujOT8QC7pEdzGDvI9spmPbjkowWpEqdtSwcDGCNOdnvw9N168pGu7/yhRlNvfbmVXaVT3lho+31s7xkY97WngoGz9IyAi9y7WP0oWWwPgbU9l2xFTDedSLnIomg1RiOzT9f3NzKncC9Cyh36UNBYAATb1wbXXpxaJETeLYU2pdM5BUrTRizeJKq61uhl4uVHvqUK6gyWpRd6k3Z1rPlgmo0Vt6BHELT/lhedPn3Nmm1pEGS8MD1hVjmBUKvCLXtFDsq5YkqRQhjaluGfPBAeGO4ANrLbD5QAsjjSLoaIyJ+bbSQIOWl8ceWcc/RyA/zH01UcnAmfzRVtgl34t/qjwK4qr/0ZepfhgMAFYEDOV5Mn3GlCN/kvIGBkra0wjW3xvAUnSuTnU8v+zQpSCw7G5SvMa9h+ENq4mOGIVqtnDTBQe2mfBm6WBcYwcY5ci2Pl1xcQ9JiKewKh8jf3NS0qoL4Xq4roSnNFVzouQqwN8/pRC4JivYiaeIYwyL0WyApSBlw1B2d74Qe0YvC25EKPDwowc4zE9R4YkqVwj6kNWIf/z/5v9t/qlym1RsHEf3++e225espiB4DWpTqjFbeut3NeNk7QbGT0a0sxO+pRkYsMg36WteYUUy3gon0VtEnEmNXSIORBtEgKNiVWSM6oxzx8vTTHIDoACvb0dgznAj5vEsIb4pdyMxatWP4iwVC0rq6w7kshvyavUlKWHS3ncSwvNhQt1mDZuY5TsTd6hkJ17Wh4SkN0zeR4o8u+F7kCWNWK+U3bteO7zFsSDT6W/05Hzuygb6/lkJEvEqbMBmewmnWVZyYl4e54lFjNi0Js5/7MYLjLngM4Am4KrjgyD5vt6R4zpmXuV7H5X+d5sMOW3P9xTs2+4CB4E6vgilDPRmKyIrjbjMvD20NOc+mpsXvpQHVonAAtF7EHHwCg+/QHoV+pxSpdZzoksiR7ecGTYTWwJ95+jsun44sW5bcHiB6/Ss6s13eb4E8M6TZhMbYyZ1LwFJQNfioLRwsTho/X/3MXVgS+tNZku+xpAlaX5uim5CsBRoMFXmdtEJiH8Ik9+fuaslfFTT+FyVOIQJ2DJWykkPoAIFHVQ5FGuU24GwNcFtcirXQ4sH+R8WWBnDV5IMPfiV49pXLA1NVZReEp5QDE2BFFa3ZcjiLhx3W6Z7uEYPon4qCt0PljAvE+v6GadP7ZVWyXmWWu7UnOoB3213BqTyGkPA1OE5FzJyKWbsIoDReW0Pz7fFsib9d/yLmC1IDD6jEL1wTtg6FofawHsDC2IvrejUkdbGYbjgVIZtloAnLHp/uW30RPJidexWJoECT/jsPoVO0Vvv6nyHtBhEpr4NkIPk2mRQ1Hp107qITkHzxKWyZVUcF2TlF9YLmL7XDRtJIkF0Xv/Of2fEG5AyyfrKgPiSqaq8Gx/4BidJcEyrQ618Ge4O2n5brEzqYc1JtYyUBaor2XShgRsLwQsMXCkMg+0V7kO6vbsNjjcEvJsCa12ftu3H/ILXdR0q5pGRZevpwM/OoWsiGm2hryIIrO1/ThNBeI4/vpwk4N+K/Xe/h4w6aA1PnHOKAw9v6Xao3rKQCdWktVF2Tgx8clsl5vYhWxJ7upIBS3oSk1Sqah9MVaTqQbc2mA245RGa0rT5ENpa/OeOakOzc9o2iS+pfWot2Zcr2icReCxlfaIoo0zDk1ZhMGHXhfMbCpgtiP7T/OMRpNyzqzjRnbVi0tVvj3MhuCVgn7IAQ9OH+OUE0ZFGB/ri3oeZBn9Eu+lNxJeKwthnyx2rx8t8ix/2r20k3WH8I/nFHKL76feQD4Zxh5UM4f/Q5hB06TgxFHVVGteUURDnVgiGMiYkyS13zgPZcYPJXk4B52pyPOXSJ/WT8+pw4ooNBy09YsLB53NGTCJmUlNIcrJ/7SuDWxsc+kD35deL6BZ2H49d8noob8L+Kp3z2ucutuuhCd/+M/XQh8jWjsOfy3TGiayp4qLzIuMQhG15Qtdr9BFpLv/m/00FYVAJX9bVzgtSc/0ocFVlaiHbvaaTqN8GQWiX6ZnvGvxZY+IwCBv1biYjua4CwW1pU+pppYuj9CzoxZF0f+szkY9gnSjXN2u0yRtUGh0nRUHYG8w+1eMDl/AaRIer+wHDVMhlWYD+XcF/RK/x0VEEskHycj4aTCKfdG+1EkLAjlL+3NOCv2gW5HOoWFzfj567+t+f8jogtKJUeNkeJ9CFkGGbTilLy1DKK56A9waX+pH0xNl9szJxSriy2wyq5DM+llS1adEuGLeijjJJpUL6Ani728uA0z3ktugbddURuLoHqEbapO9YgsB89CTQ/IIaNnT4F6WzVm17vzlGwoe2lt4WCufz+g5x34otiOOcMB58CwACrP+E6CuQl9IVM/8YeXbZB0LdjbvBc93Qc7r1leCqjSfqg7chDDutipz/ty8rkEaqaxOVd0XBGpoBdVDc+EqBPcYAZFh/SRrY8hogon9BLJ2XG73c3anqRut2yJGqfo9n9rc6JnOqpEPBOT4DT9r2bWcEP3t8XXpELoGJzIVtFcbUlsvIS88RsngDNX0M6srm7/BhtQ5Oe3gwIKmGc3TCyRyzsQSFlaPcVGi/mMpogScipb9VmH/Y0XSsyy5zL6F22+ABnuhM8jPHeOF2N0Zl1e3Y3tjwF71fNXbA4ANTOWfUt28ml4ncksWd5A0sEowBMDlLXj7JRU+7EN5QXFCS9c08GgvvkIZNJrHqsq9h/Fi0Vq5mi9znQxnIrC3kf1MDV3OlC+/skg8+BM/3tzl7RctuiPYp2JwLJkgs55dR5vc4FAmzR0/lJ0BdvggjWLfO5GtrKvxYxwNss3ER+eWAxQJmJ5xN6dttPPWMKqE/15UGa4AUA1D2pjzeRlNZgT2faSO8e43J72jnoWcgYj/xsehDZt86vB7b0aMAWncpOwgK4UVUP/bySFqbnfrmMprRcaHCwbzZYmgKQlXwrs/Xs1nYWimigiMuDAyXah6MQmGWHU0QWZNqCAoM9VYEz0paAOSdHymMHFUhhLGk5xColfa07vmnMddYEqAt5e/Q4owq/gs1GA9xReFMQ0DdjafWDpq4XmhkU+MAriLUz11HGc++YlHxZcXDiL7wUw1s4fG8ywSwgKzSEXY2mO/T5X6JMDm70rpiM4VHoJXPTsiuIUacwld4Dn/+mGLDZqNkHbj6Uia6N566wTOc90DpNczYOU6Fbm8JOjMFkniPYq0Yb6qlPBkX3tGkf+lC7nyYT9kvdIeTxbrzBbkLgTwbjcBgEIOw38/rm1bNIef5jeRMcfhpWIBsTgqA7EOMLg56MU01/bWH1JW17zMJwtfewSTDAkouYXE+jqG3OAcKjI2+CdcHBeVVivvzIYndRJbaLKNO/e6pwXY02Q6aA31s2WOpsZxYWOs9uNwCv7DkAjYoZW9JilsV+n7ceg8u4tWR8QOeV5vDyPhx1yXhiJtSOImUkaLHvRGs+pXnTQPKujcXDjGXIDVN+229abAJWHLSTlU92ubnLM+Miz8NHTzEPAuQXF2pSPR/o2WvZDlecROMnASDAt1h3JiE1VfS7R/JTnqPbY9gLmDs/blvhfJH41qaQFAhAskuCU4JILoSND6gOeTayt4S+cw46YKxByX2UbYrnz0q0SdytnwR44ee3mUxUIaN2F7nb48BoYdmwJHx40JWwv14OBzvZ96OOUQTEdAWck4G4zH+piDXBL2oWM9bUYjr9LzYGaBO4Zj3n//S0uSxFVFuk7pgoUVMFDF/IXjZbVIOiZgytXswkdWFB/AodipFxuOfuTGaoPwyOFIUzDEFDx0WOg3EbZI/TNiU0uJ58XzOLmkNR6z41eNRtCyjaHEJeExGYGPYwKxvO5BrV93mxF3xhuDwV/vtxFgMc5st7sCVpdeQ1iqjKiQFCeL9LaifHtllT9bJ5Ng9uNpM02gqbkEzQ0L8W7Yg1mfsc04yFqIhHgFcdm/CjJFlH5gfl4LDYl8Eqh7lcLq76V+RO6uH8GAg2tPB7EP1XH4gTts9UFOgILdIwDEBX7quFLbH2SUPmNa5COOwEmTFUiv6Ets0VOKByK+OLpr3D2ybsVT9B9WwbUWAeC2pcCKzIhiSON/UkSneEP4Ya5fvqku7jJwo0eu66CLh3Q/CbYFDzOc0YG5RZLoCVBkaKbf7boKcvoQyt1GGOMfZipQ4wRHuxdD089xkFQmIRgq2FdO/vL3KaE3DajzKV4AYpVCZ4zoAMnnvaD/0+JnHtswGdn2Oi90rzqoEEOSYA4odRVOa14b3alVY9LtYNdJ+DguDOxpbBV4dbNH9EyHtuPlG9gtzPATMhi4p4DMvMyHxzdLW4qVRhODheFhfiDd5+yE16oH/iD477e6ls/vEI1FMz/mcCk9OcL4e2/PZpFGHMPmw5qbisAMigAnoMKcD9DG9MkXsJL90EQpbaNpCUvPJfyZC/dQPCy6In2qtB0KRbpqTg+nuYEHVpbBtozLxxDoRYEq6eCanzu/OJso26uPvsxIQ7BHUttQBlt8TAOIlleGHn4OT8Gx+uK2p67J5qOvtKhX7YWzRZCd/q+tTw01zQ5nd1/vfxBN9CbnDn0N2JHOqPmNqzoWsANBDdIk6VC2W/w2Ln+M+0gnXR+tkQS+YjmwYSqXJhA5+62hMsAermorhqF5M3Z3Rv3NlDgVmDCBXX9WSRv9CyMr657/9Dl3YwtMfxY1PGrZsu0EQoBLxjbfCCiYq8EwbW62lsRPo5tcs4M9S3IM9y4yuHsOPEky6MBss2Zz7OsYYHkIqPGrpczhxqWX9yAsPFxKqwaSJL0phhcPZ68B3dFmWrMwip3bxJefpjxASwgm4x2H6PtUaFJVvZ4SALUSpK5pVl3BjYAqf2cUJtW8VBu90jkJX27lze9AwhwgcXogM/QSLeEBqXtKBxk0OysW0VGmeYJlPsd2j76HDKnmy879n2OmWlN1O5fkHBAZdmIwzwsYPw0s+W96Y0z7Oez8OmQwJQg5Cm1V6h0khS5k/SAlWO/lfApGvUwuyFLuoBvHexBBEtvqjofe0vufDAX4TbKjnm7WyYIeMA1N7sNUxWQ6Ohypy723gN2Y1lcvv3ioHxPZtvOF84r7ICL4B44q0UFL4tA6Eh4XBDRnhZUyHqAQN4pCvgY6NXEdJ+FQBYL9DXGiKeLUkHsRagUPwAqnNwMGTxs/sQTeo3aTLa7GWQhJ4q3AbtvkFsr2tfSdXesulxWUYtfQiEDOj8ksxAZhLsHdl/wo/dj4U2UccRiUc70KP3LgDP50fzBBNip+tzagNUk3m3eNorzPg5Fq2s6m+NmCwAb1Pl3X/8p4tDFu4WKtR4blpEprNBaAZE1xmsVDuZAbUrnFUcnAkoA27eE/P0vRijRySzSp6bJJJvnT9DhbQMivBQNQ2V6aKF/bOXDmfw6YhP17ZPanXPymOFRPYRDBz/hxs29L19yaPnetmsAn3SwwRlVGNabqFz/mGf9AntWzWnRdgf3+Gdzj+UDzaWWO+e/KJi3+lHhXPbZ5fgWpDGMroZyk59jxSVubQahsOy6ScRRVEl50wpip7ttD8LuP/v/eg06j8Az1tyP+O2JsLpuLbYrj6WwnadlUYD64YHbHsjd49E+iTTazk++SJgfIbPjlmxo0KUiGzu51TDDR0vPOcgs/jQ94KVZqmozDkyHWcG14g1i+b6A8+A4viG2Fow1p15uRUGPgGoxqEzMwxjnCQxPsmTdW7f6CVv/mxh9u+fSlkulKoi8p3I7qRyWD7zeGbwtYrcztkU/xByEeQ/LE9sQeF+KBjAf2s4aUv5XNXIBrQmzgBsnVYN23M5UlpwQwIFNxOl/3mrfClkR51g/b/CgBAZpjDEtnS7QsCPJpNcQTEb7xmNNgPAHF/5OaJ5eFd/zmAEB+/B9GLE3W163xQkCMYX/RtNow0qHmPP0EJlYv87uW+G91Jp/Tv3pTE/3otRwSgr1xo2aIdHbINxc3koNtToYRgpRYMy+vhcr823NUdcIUDAvNgCJYB3PK7kz9zXNa7Hq7LPN8pgF/qkxXTOmadgSeTX4Gjr8dOzDn/vpZtFQ7qPCTtKFo181p3QXC4XqHbmLsbE+0OZpNgMQ5wfCTqcqsdzHfMVZuKuEvZ/5AJSKp3hV1Z3Be7NfgN6MtgBM0oElyg3wKyfi/ABSp3awcdz7pZy33Rb+qqorVd/ih9jEHDs4MQFzTnJkPhOCKIlYVsu4/J1Dadz/C2iWH7GSYnbrta1v68bJsNPa04mIE3bHSFh/VZjvGYsDA+YiP0fWVJJlHrh3I2c4FsMm6J8eYgJYNxMRbBeSzmVWhT3H8XOWaB8WM9coKhqNF8xJ8/VTt0Pu/HAwhdKLlLMilM1DUd1TSuWPbt9OsEQskE8yYaz1lqxsEVPRlRa70SUgoPNVQ0JvDXQaQ5/J3I+sI5dl3zRHsgzGt83R8QoPAqL9dOWD0n71cPvafadKbNQqvMGiDiD7r4Lw4L0WNjAJWELXnzhe/skMvv6m+qDWlPqcqd/9hzZjKuoYKaeTyTmLfn50mHmdBysuYQq9Pz6fTk1ppPhpgAXaGAiCVvzVuE9/hmI/MY+zfn3DM1BIdAi5qAOyAl2LzUpr4jj3qkOO2PlC+ut1ibfX0iwaDjPpe04e/ZoorAUOKO0tmP5aD313sA1Jd9v+kl6ku5r4O9OpIEuReJw6UloS4hn/K+IjRCe/JR8vXxx5LlYYRrAV2+upAP11yrvA5ePUuRlzRtCTdc/LTKiuq+0+kDkZaz5PwGe1bvLA/OwTiCcU66Z9PXtCUsBCutPXpg2lhol2yHI0N8vS5/FaNHGpRNIGkKWTee3cvw/otQJJfcOQP9atYoIggJGejbSAahoLFYEqxTabpmmjOWuWF8Ty0x1OecvMDW5TMZ8SI9INmoLEHbyZo8Bhqhf0ofp/TeNZv0wWhKRO9wAaXsY31KrhDTNcKWyoCl3Jwg8gqNJ5Ys/jTUMqnUi1ZfvUB941y9yzHaWyYd6E0sGYaxXY8Xmjo8lw5JrkgWmnfeKXhZ7nyxEKbxzUqdWcyOw84WeQ0c/CH+Z8xL90f3OyHegFQupaD69yCBOqkpy8nOXDBlefl7fDGxbJ8k3GmZg0Uj1J70hA7rbPjaCa0/E6Ma7rYiesNTfIZ3D57EKcRGgabocvSjIPO6IlbKdT8Lt9Urxk3igI8gpGGn9v1oA40dhB0ly9xho3ovVfMLFNpf69CsS4UOQST//SkdMK3qxXPzMaQQMSqkwSNmq2cM+Al6FTKPatmBWt/U1jr05r8PRNGG/8+IrrHkGSir/feXznkc15LNG/AVly9LtHEQ8gu5HlHiNiyYL3gnllucXYETGgiR6+JbEHLL5HlygDphHjD8mcxFU4es6ZmN6vvPsYLnfuDzz/C28mkoB12BXg5HV2iwwu2b/3oyNrFJYsQHkTRHaZR5wlny64Bioc2R0T7tkeIZFj/aIhQj1BFuaNAdLtIH634ePVfrLGvpUDvZa4SylLQED9iBV/Ce8cFXwNAgMj05lpYCXQH7T3TqFGFWJrn2KZRdOFnjtBnGaDMy3zgTSJvzAieXZmGGCSRgafDrCKP2LYuf4iB18OOGtm4l5AtJtNnylGPIn//cH/gU5zMFLX6JA/29Hf0B8A6OmQ+1sdHilWWeXss7vsk00Qk9+hSrDcnE1f1IeMSqo6k9ph++UYykJzVpYuT2CZVZpa8nf0JKt2Wfhjb8Qiu1fDAuJFUFGLmuL9WVyIPytdNtOYklu42+/mOu3xSpriTwLI5Q6nwfEiTqR5qpYPA3fErS+KooOq2cf4HaRXjZYMRiYmwO53nUY+v6Wvm+trZgA2SCmzZxCp4w4+Z/yjB/M5eCKrWQAaO/cSblA7HNKkgmR7DPiL80evwHwuy5BHXNKmL78wyuQwSu9JjpxLz/MZ1JrL/izDJQwszoYXFnjUE/PnjGvPkKT6Td4HssVra1Da1fs+wPYPRye06l/WsraculHzkTn+2igjlCeZEpMKUKG1BJLHOEjpu57PhksIlHW1Qd/5pC1Furm+B2bKY54v0LZYl50B5GBrmHAJmKnDuaQlm0qZTCaVHLSR223MFsu8pZb8VGTl17Mt5Oi+sQch01aDw9owt68mgz00r6qvBNWYH3lduIBAYSRjCfVqNetYhXyl4fhXomxwAWR0LJmkqTTDqDxjG3WlUUwvsB0Ot9T8CF71ukj1wynxc69oJXAmLKGkGEZsmeUv3s65K8RXx5iCwb3MJvaTti+xg9ULqXNRWTb+xK5TC7XaC59WHXboF9zr2uvUGSIewelw676AM003SY3+Ix+dnnmcWsrTZC0UKz5nhiqSkthdBJWVCFTfzOixSOsZemDF60cLZFBhkKXrBDYwiu+Q6mqOnoxPcdGdtSLkzlP1Eaqk3zh7u4L0BqnK6Vqtea2zEvA7ZgNYVjEdoGYSG8wVZ2aiU3Kth7bJ5PNyxNYhf0bnds9dKXrMkpFW02VSBurPDiW4qVag7EcAzIh4Pi41gPiC80ncTdTiY+X8nIrw/LFocUXmvzwPnlWfKRgG2XVogQIpH85RTJ1qtqd1kpJei6dEQ9TY/IsB70pC3vTkJEKFaqGOcu0T0yOkhPQDcMhtVOuunS4IJwS1Mx+RunhrojJiFFmi+a6i7B84+eYNdrE9FzaVmme1GyK7OFTpLIqEiOWO99kgR4Rp+pdvVCrfBC2aybS6xfjfSJjeQgQnR7OxULANZymdzvCnx6+lCaZHgjQYEKvi8un0jRN8SaqUNt0Kb3aH8Y0qpg7zarHeqVGU/A1wRoqASmWRVL43SWHcSqj77BJSQQAq1J46JBHWNRpW8RpEhK6kZGY9jBdhPeHFZtsaiO1yfk7QFhn6KzAaezMcHENxiRVdEoOoAZWsNpHVhGGYOfBM7Nl9FZMHmIEWrsQOdlIYz3JVArdDt6jTOuV9j8PGVP/EE7QEqxWSzMP59vz+IhN/kt8pZV717szmu5oMnOVgthVaEuk/v1QX7ufPI6FiwJ3zGY2xePQlO3TAyN1WP3FQvT+SePdouXZ5g1Q59og7QJnIkiiWA7fRWUAUr4/gA4NmnPEUa2SMfyn6PYERKosgSbgFbf6E9vZwo5ny091pbPZ9tBRABxRxe6rMlBp8//9WW0L1o7qD9yfD2YPVV4ykfm6QOhnvt+/Bb2m/2RRvsKiBw/f5RDQ6AZAgPAXKfNfE0NUzcR80W1ZV5J+2Fg4Sp922tpB/AYgLSIN78uiE5Q9WolDiDv2Mp0lEkZPwydxpeLOTnpCjY3IPBXwlqo1QinLGXFnDvycdGAJvtxx8yo/YOPQld/EhEXFNxUg45AnnVckPUqmGpyZtAE4LHtGYuv7KGQ442Jfh6gIVV/zanpLUKmRy7OXmegOshq+aNyo+MsJiQ0KvQurlXPpyHuuEjW6zEaNiPKnA5kYvXR7MFuTURWg+PD0utgtLmMZNQ/15t3S0XUeI6YW9TzUn82qiMwXITGDK07q8/DgtI+7zs0LON/M0RQB76QAWxuXuVpkTbTHK6zfEBF5wS9sLs5DaYqZYmmiWrphV/8hPqp5bR0dyWBJHzAM1pdt5UipILDq/RJtrbv8KZABpf1LDfLT8P2eGkG0dUVvUuRBGhbWLl7kp4aettfOV9jC9QK0V9pwCCx6qqlXLlRQ97CXY+3V0STkh3+MHzoj7GXZ2OnLSLzlgtvwhFuxmLl4zeW476NWElE+5MuxrIw1y18YtmTpf/MBD21G1UURXzvKspC7kaTEJ5K8l8QWXRr1iXl2BsNbLgW7dYPQK/aVYd+MjCSn6UTF7wDb8NeMAdC7E3PXO9ud1uQTcuqxHi5U8KnMgUI6QUWYgElitENyxvo4g3WU7cFLka4QZyCnPV1I31LMF82TM7irVoI3mwnG9gZRtfu6AsgU8Vsvi9RblbGaXvPMtrZ+8XdXz0nnZiQpcH24oLjqMxyQVDNRvNCA0QSiJEQmBnGVG5b5Xuw1PBbcVYaP5/q6P3HuILpK3E08yRv9jfL32dXa5J7JjqrGhbj8vRs0tveAoEcjIP6tZOLrwozUwZy/g2cTK1BQIfIGTMCUDu9fbXPUXgx/YCal8FOM7gEa95wrd3yniSqvoutKjza/iNQArnhG5CtM1FnU+1O4CQMoK61+dqOpT12xcG7cKWzcCErZIG6pkumEowJkDD9ErUmr0jnprG+DhbEie3t58XGyW9giDI9eltlq1s3sw0vuZaN79vsD78+i2maRfxzayjdcUZoMMBC+dEoddezcmPOfU3WwQqRAvkmAlt/gt8ydIECVisH8Cul+ahm58BJqmk6hzofG7UdGEiVi0A+SggaUBqwVXIOINjsYUghX/9sjfvAh97ttQQ2d1ZppY9PCmxtqRAKuIsKNNunwEqk5PZPBw7ij6MGnyTUf3qq99H59gtaooznpiKsDZXI/XzQSV4qam9Ez+L6nqrwPJ2LOtjXfPhcddyMIi/4Gtrx3B6IoPUamX9B+vjGimLLGG6zQN6GYY/Gf2c1qnqLBfAqsIgpk/pHNl/3RzbrHxLmJ9uxpKB3b4H1QevUayTvzgV02RY4dZIcFjzLaJeL9fEQ7xxUTEDJ9yOSa+x6fxt1YoS5C4ntdLU/qjdCFnhTGLyCUVwFPQjiok2X1kQP7mjp1zKvON/HqcsOItC8WQtsLWa3HKGDqhhKPsEN5frdywIob1QC+JT+yDxnI8CO4ENXy/13seir3A2czaOzVAYCftgplvqEXpyfHfHRUy+2e5UZtCrWz+scMQhiafVo38Bn8YClT/vYQRGplTM3nmq2/pRG6TmrH1zOnSdjErr7qyCkLsDqM35VJ4y6oxlj/4c9rHfRm7Z3YWUlCDNFvnGMAFjaCManMfmWEOcfKg3HF3bienK2mAyFn7OBvzWIvRlNdxBqTpjZS+/ME6yEqwPo4mv390esj7WItako3f8ZqU0w4vVViGxsZ85Q30rA03/xZ0yaMECpCB0SjZVA8orkK+KPdvQpLb2zrwx3gd/pOkX29RAquDptnrFiGULNi38vAWlQyU7GwFMb0y58gkWSIQCRVlF9c4FdY4W6zvFeknctEwv+ClxaefhGDMdw10iAYbMJx0JzdHH1doM/NqfKj+FbwA5HGUgciHbxR3qKe/8Ve5CGstUXpV4AYgSw6N/A8OEyel42rdmD62l1GPv0CA5fjwp7Lo6RGnObZWyFHX/LhtTYDVs1eR/3EmaBkwmFovv84zOXP/hAEwCgJh2HPL+rvuBdVuSgBLjc3Hn6d6iZHn/Nhhpym1UNEzue/8n4iSB2JB6kl2HaJm2lwG6s1Ag625ZH4EGt+whjEHUsLoc7Nscf7tzqdNeRB0xdTrMMKVSH1KPEN8Ig/yqBgeJANDmqerxli2L4Lo+L9yWdHzKxJoFEeeFtf5OXxJf7VBzo81FaL0dhP8DLZ9J4KukkMf2v6YoYSzOl4dkc/OcZoJMLJmjDjVgrnSklTfYrMMungg2c2FelSn3MNXg2m9oQarMeNW8cpZBrrsZ26EmtVMeJCRBAvlsuENYrp6kIV+nsBpk9YWBQIq1vhpaJgeTxNB6t00/u6dXWY0SEzlhc3AlOPa/q4ijqbMLoUj/JDJFs58D3f6on0dqU++esXS0Y28zvc0SbSC+dekTAlCazpE2W1v4W7HhRgSpnC3s/M/212VO9Hi928CmV81yDh29syrEoKukG4HUDXevlP3l+qDQPJr0rp4JQ4KGsI6+/+GfLH9+fiCL4o5Qnxz0rBtdUCIY7wgfa/xteRAdaQL6YZbs1Dw0AYoLJkS2UhC+etLz/fFIxeCbkoIMEM3Vy32DjAFq/KtXmVRIPPOzYDBHaVY7srxdg1iIByeVG1zX3LUd8QIWTWxlK74n4IUT7a/5b//766jp21lFdQ3Oi/5fTbuJRvaSTfSt3CvuEiMkykhdCgdUp1+ENYlhAgMDSajQcx1aw2MXNGhUcyUALEECqXb/K+b5xvZbqkcaVA89XUgT1BfkPIzxhUAnv8BQStacoDGiZGPeBaPUEdkgnAh4jtiYjm/8T1UPiYRjEbhfDNE37P6t5AhNZ3lAy5jQZgFUGxGQMqC9sTWzS6DeG24V/36s6ny6eekLvT62R5jpU06YTfs9B2L6YpzjO5XLNccAUt2UhBgltobaZrA+Z4f8BWhxWnD000BujgiJCt8NQDd34J5NZJ8pM20PuE5ETrZcP4nl1uj9J7WVKG9eb0vfVQMmkk6cr5kzTA9iJJYZzaa7W3L3IqJeRELy/I+Yar5CDzVwMuvv/TXei9RC7MXjjYNpZKB66f+1AUSCbbssEdXXEGnWHPvfPaCQjXrUWTv4AAsZlrJldQm0VLeWw3vUWqTuZ3AYShnB1+gJrzhMy/uAQ251q+BgmoF3uJQABtigl+ZMEJdqByXMkdgbkgN98s8sc3+Lt5Pt4Xgef0URivf3ADVRRxMnjO9lKUvy7/LOr14aaL+8IaYy8TVfgRhoLKkHSFJV5iCuWc0GDFU0PYBlla/sPvPVngSWIEEQMhGWSAP578ILWmF91wDtOGKxxXC62Pg3eURJSGNwAmpoPFq2PP1xMsU9NqgdF/FrA1zFEnf1PMptroW7JC6UsE7R/L66AdNoILUrUXMwyQ0oxK0nkNE36zMI6JglJJ+/vPa5Li4ctOhx6rhywUXWUZ4+Y0mBdOFfG3r9kDDcxDNiVKD7RyEnDOP5bisPQhfr2aB9tNJsHxnRk5RRyIOOZyeoKNR1Jmt7q4XHt+kI9ZuxdUCAbcZ8y/mbeZ8Z0/yOOmvRURBzauJChnC3u+zGZXOskQKN9jJgZESPVjw8OGVz2A0Ld1EjxXQR0MEIWLdjG1M2U9OCstCW4xDBTCy771+K2cNwzOOyLbKyEhclTGkQb8X7pOiJTadzt5YtQ7yoRkJB8fw5SOgqqlYfLatDsHrBr3Bu74yhlly6QiKIrf1PZUiio4nCjAPGhUVMLTn+L7319g1Gb3AUiypNlUOJgZsRjfxrMf3L+DgFXepTIR5mGGkNByPVPGz3bAgGqPxcwwmtPumlXEwhWwOXufx2H2TLPrH/RieAEsU4sWuRQY4B+TzwaAzd4p6GFcGqq1Qr+ZEOJydvq/fUVTzCDJCD/xpGsrtIyspRsn4CBcyhnPaxPwKVJh7wLW8cKQd4mNTRJoKOPvZvZGFhtRCulLPk0f6QfVLYuNphUO08j/W4Hbmh2QQTwGjb/QNEmNIYR+f+tHLUkgq6V/LhnIdgGDNZrX7vTtCtXNNRPYKZXjWYxE/rRkA3FtKoXC7EmZtoLJZjpvjklGg/jOm9R707HQg3dq7tJ53889XmQH060Aa2wVHPkgBEa7KrA4WnR99OSRu26AR2LH8phbiFoHmr9+xr7RS8NKHIR/53O/PAQ/OGtyowlVTsSiFtl743hk+CjIBmOKy+M2q8v6xmzgWaa9Ul0XchEG5MDF4EKgGke33HVsRl9FceT/V/X++VM+CWWDUCiuygQ8eUChXITovLqxLWw1p0LjdfI9DTfYDXOuk7c+nk6qH3Gh7+ebokTiIFSs6TrzOBSiWL2bhOnwKTSQCOn8FKlOpY8Mpk9UEAecWFB60F83bJliCiTALEQ6BRAUlY4F0G4B+h7R+tIsN+qR7QV69GtLrNNrgnYaFzl3/Elbkru/i0vkSGI6gtw0xNCdRpW2Hfob+nNd/MEq9akWnY8LhnGyoB7ZIQm0w4lgWwfY3PYKSFVPqV2LOoOUqiWgMcEG5aE5e5yfTQAPNaYhXZW0jJne0mdrf1d8gYtYCZYasVRSBwjPDbeA0HHkn/B5D//UAgASRxuLV4LV2s6svDTy3x279QB8DAkGwUvPVU6TgGFfJhmXOxz2Zf/gdlBFAtGEPmj31kvTV8T1dfrkSxScOM5ZNWDr7v7N47slkWRRKN1YQokWwmEK7fEGEFNydb9CJl69w3RMI/QIW2pWyR7KbKdSIifi5V9wOkyyzQTQU8Cy8bIIeRQeZCKrx/5OwPSYfjqRYMN0cXUXz/fRmRO3QirV8UrSHEe9HlZeAKdrz2vDQF6UYHZCyDGAMBNjAZP5yz8qhRxSf6WPgEoG99IuUwfh/jr34iJdWhEeFMIMdz3WdJNvb9zQXY4kBFsYZhTxRbzrNEKkgoC+XWcGxzwN98FT2Y0GUq89N9Si+KNLVfxOxUt2KfltefjLpIUnkiquRySJlOLR6C5x3IiXAlnZ9Kzi9njAj7392+5wm6BDb2HdlQ2C+H1/cZdZWNhf+cJbBeNoL8ZflJNnz8M79I45fMEc4HSiCgSxT5GCvGhmk5pao8XJs/mSOQdOf9kvnc11xq1J2MgPSosjtuDg25h0gbRvHWkazDlCP0cS9UYeGlieQGeRFZMytoC/QhZsuU/A6ZVz0tGzMt/QS3yQh/ZMS8G3XDksCMcVj/+40ZfycD+KiKG45MVt1ovfxPFqB4JoBhk93uQ9qSzWgnIDYwcrfmeshCrFgaCTIL79aSN613stqVtmW05dqowfkZHIYFPTgjcUMO+gbJeI6zQkzHNsiDmJyP/xLhmdXTzdcpcHF4n/OHgC+EboqnyNOUDSxKdr77QSeoL6+v3XhDRZo9IGw04YEUQADp/gY0fhOowDHP4wfUEmbgPyqe2QVZVwG7CcGWkT5HYbd1F9DaNgvSstfUlVerPLjyB8ULItE2NNm32Q5aPaSDkwz9PMZKQqPlKL++B+F4huCBZynI1+RPctiVp1gPEO9aXFDswMEXN9IQbP1F2QKjWSG4UHSm/k4H5mABdbbllnJKg6nS+t3ZjXlQ+pj07DTkNo08gC0YWrNCJaGKHZLj5a/Guj+YcxpvYr5rc4K5rI6JrRKh2x5JFBSYgWw1O6eTOOtu35Ed1LWKnhHBKWDwL74D/GHgaO3f1DvRjDzASLOftnco7YT//2hH9Cr//+zilQJt8KamCvPqB//7B/hr/P67mrhwPPBVGS3/8gTAFQQdDK3lwLta4csFa13Zd7fOG96ocIrkADTW1jp986OqgJU4lpT7GYMRXBa8ZhzXP7q7SpkkHHzS7XPBBKN8hHHdcKUXN62n2hoe4SGYl0KoIp3A83iHZU+yGvEynM3DQ+pTMtd3WgCLeg4vR/5tvrbmAYPAKSrK7+pI8tuYV7w/1ufo1ckH44U7RFT/fhspmf79//eAoF6pTDzR4gEFFquuIr7SdMeSjtT4ZKonB0US/s8aQa4nT0PFAxLQ9x1/T6+OcPJ3v1Kv2fgm3TmXoShRhC3F8GkwG7lckwcF6n3uOqt1YJu3sK8H1rt1VaBoSm+IXiVgAAAAAAAAAAAAAAAAAAAAAAAAAAAAApzMv/qUp+cC1+DvuWCJtv1y/lLvXkCoDA3/zSwsntfC9qx13AMCMhMFp8R1Z7K/t1ukt+HBeFlghigV2pkqQcYYQ1lk1VUTmEzVqGyya9BtpA4Jh7S09U/mgndewn4zwnFXDwDKF23zp4Hc3LMBRAmwVQEIicnP++t6T1f3O0d4tzdAuBMlC7SnmZ1IpacXr59dXjBHUztTi5jJVtlw2oeFMHYJX3eUWPGtXAUXShdMrdJ7ZH0t0G5p2FbHzEHH++qdF55xhGM4gFxOpA2/jwH1u3wVgAAAAAAAAAAAAAAAAAAAAAAAAAAAAAAAAAAAAAAAAAAAAAAAAAAAAAAAAAAAAAAAAAAAAAAAAAAAAAAAAAAAAAAAAAAAAAAAAAAAAAAAAAAAAAAAAAAARVhJRroAAABFeGlmAABJSSoACAAAAAYAEgEDAAEAAAABAAAAGgEFAAEAAABWAAAAGwEFAAEAAABeAAAAKAEDAAEAAAACAAAAEwIDAAEAAAABAAAAaYcEAAEAAABmAAAAAAAAAN+TBADoAwAA35MEAOgDAAAGAACQBwAEAAAAMDIxMAGRBwAEAAAAAQIDAACgBwAEAAAAMDEwMAGgAwABAAAA//8AAAKgBAABAAAAjAQAAAOgBAABAAAAUwQAAAAAAAA=;" parent="1" vertex="1">
          <mxGeometry x="267.93" y="30" width="294.14" height="280" as="geometry" />
        </mxCell>
        <mxCell id="4s9riecWB08T9JkeakZJ-18" value="" style="group" parent="1" vertex="1" connectable="0">
          <mxGeometry x="220" y="530" width="380" height="90" as="geometry" />
        </mxCell>
        <mxCell id="4s9riecWB08T9JkeakZJ-5" value="Pizza Order Processing Service" style="rounded=1;whiteSpace=wrap;html=1;labelPosition=center;verticalLabelPosition=bottom;align=center;verticalAlign=top;" parent="4s9riecWB08T9JkeakZJ-18" vertex="1">
          <mxGeometry width="380" height="90" as="geometry" />
        </mxCell>
        <mxCell id="4s9riecWB08T9JkeakZJ-4" value="" style="sketch=0;outlineConnect=0;fontColor=#232F3E;gradientColor=none;fillColor=#232F3D;strokeColor=none;dashed=0;verticalLabelPosition=bottom;verticalAlign=top;align=center;html=1;fontSize=12;fontStyle=0;aspect=fixed;pointerEvents=1;shape=mxgraph.aws4.data_stream;" parent="4s9riecWB08T9JkeakZJ-18" vertex="1">
          <mxGeometry x="165" y="20" width="50" height="50" as="geometry" />
        </mxCell>
      </root>
    </mxGraphModel>
  </diagram>
</mxfile>
